<?xml version="1.0" encoding="UTF-8"?>
<svg id="Calque_2" data-name="Calque 2" xmlns="http://www.w3.org/2000/svg" viewBox="0 0 2067.62 972.99">
  <defs>
    <style>
      .cls-1 {
        fill: #fff;
      }
    </style>
  </defs>
  <g id="Calque_2-2" data-name="Calque 2">
    <g>
      <path class="cls-1" d="M1964.65,764.55c9.06-1.56,20.55-9.95,22.58-19.4,7.02-32.68-40.12-50.49-65.1-56.08-57.76-12.91-109.66,3.71-167.5-.46-3.17-.23-5.79-1.98-8.92-2.07-4.51,4.73,14.61,26.04,17.68,31.3,4.57,7.84,18.48,40,18.45,47.73-.08,21.96-34.66-2.74-42.96-3.1-7.21,8.07,1.6,10.26,5.73,16.15,12.43,17.69,21.33,41.08,19.13,62.95l-5.06,16.93c5.37-3.51,9.69-7.67,15.63-10.35,7.29-3.28,17.7-3.71,23.31-6.69,5.26-2.79,9.71-9.56,17.97-12.03,19.06-5.69,44.52,2.42,60.77,13.39,8.06,5.45,15.92,15.98,24.65,21.49,3.18.9,22.37-9.43,28.1-11.34,29.2-9.73,55.48-6.15,85.26-2.2l53.24,11.73c-29.52.59-58.66-6.03-87.97-8l-1.91,9.11c-4.78,1.4-9.73,2.09-14.52,3.48-2.07.6-6.03.58-5.56,3.41,6.27-.32,12.77.49,19.03.05,7.12-.5,19.4-4.32,25.81-4.02,11.06.51,21.17,4.72,36.18,4.02,3.26-.15,29.96-6.36,26.95,2.94-.45,1.4-3.79,3.84-5.46,4.55-4.79,2.06-30.35,8.26-35.55,8.56-8.24.47-21.43-1.88-31.87-1.99-24.35-.27-48.74-.02-73.07-.1-.79,4.65.46,3.84,3.98,4.92,5.19,1.59,10.51,3.21,16.02,3.09,1.4,8.47-3.13,11.43-10.96,12.08-15.46,1.29-41.07-7.88-54.35-15.79-31.12,15.06-67.16,18.57-99.72,6.28-7.09,7.41-13.65,15.16-20.89,22.48-3.12,3.16-7.47,5.08-11.1,8.9-5.76,6.07-9.24,13.88-15.96,20.03-40.69,37.21-116.56,36-151-8.93-4.58-5.97-8.64-16.71-13.04-22.96-4.7-6.68-13.62-13.31-21.83-14.17-22.94-2.4-54.11.05-78.15-.02-22.73-.07-48.85,2.3-71.92.13-6.65-.63-14.59-4.89-19.9-5.13-10.25-.46-21.7,6.17-32.02,7.13-30.98,2.89-68.15-.84-100.1-.13-53.65,1.21-107.98,7.86-161.7,1.93-4.87-.54-11.84-3.66-16.2-3.63-8.66.05-27.69,8.45-38.1,9.64-56.96,6.5-112.84,1.51-169.71.06-72.01-1.84-143.55-2.99-215.65-4.29-14.31-8.65-26.95-19.85-40.72-29.27-18.47-12.62-44.19-25.68-60.49-39.49-17.35-14.69-28.25-70.11-37.15-92.84-4.78-12.22-13.59-24.32-19.36-36.63-9.64-20.6-18.81-54.79-32.57-71.42-8.45-10.21-37.88-33.6-42.02-41.97-5.21-10.55-2.46-33.99-5.93-46.07-4.7-16.39-18.35-30.75-27.95-44.05-3.89-5.39-9.56-17.44-13.03-20.97-4.05-4.14-32.37-9.12-40.55-11.44-9.71-2.75-29.24-7-36.96-11.03-9.2-4.8-17.22-18.77-25.51-24.48-5.79-3.98-16.25-5.32-22.91-9.08-10.88-6.14-18.23-18.54-29.14-24.84l22.94,45.04c-1.83,30.41,2.69,63.96.1,93.97-1.08,12.53-8.51,30.31-8.16,41.92.28,9.18,6.91,19.6,8.01,28.17.85,6.63,1.79,17.16,2.16,23.84.42,7.73-1.98,34.4,1.9,38.1,2.18,2.08,8.07,2.81,12.14,5.86,16.85,12.61,3.68,16.71-9.64,20.53-26.79,7.67-61.77,8.21-86.42,17.56-18.09,6.86-37.59,23.32-54.91,31.08-19.69,8.82-46.36,12.6-67.55,18.43-7.69,2.12-14.33,7.58-23.51,5.48-.45-2.98.1-5.16,1.11-7.93,2-5.45,23.27-25.73,28.83-31.11,3.36-3.25,8.33-4.7,10.94-9.06,4.94-8.26,3.87-25.12,10.17-33.83,1.45-2.01,4.92-2.96,7-5,8.05-7.94,15.81-16.2,23.89-24.11,4.92-4.81,10.67-5.07,11.97-14.02,1.55-10.65-.52-24.75-.02-36.02.6-13.67,1.07-28.22,2.05-41.95,1.62-22.7,10.74-47.69,12.13-69.86,1.8-28.73-8.28-66.49-10.13-96.06-3.16-50.72,2.7-108.48-1.93-158.07-1.1-11.76-6.59-22.94-15.04-30.95-5.38-5.1-24.3-15.4-20.09-23.98,9.96-11.57,20.66-22.11,33.19-30.96,5.2-3.67,12.68-8.72,18.09-11.9,4.21-2.47,11.49-3.36,14.79-7.21,3.98-4.66,5.49-19.35,11.01-26.99,9.05-12.53,24.94-21.69,35.42-31.57,16.28-15.34,31.36-40.65,47.53-57.45,6.63-6.89,18.54-19.02,27.98-20.02,22.53-2.37,56.57-.55,80.14-.03,12.34.27,24.41,3.13,37.94,2.14,21.34-1.56,46.02-9.31,67.5-5.6,4.58.79,51.46,17.46,54.53,19.46,1.78,1.17,5.18,5.19,6.89,7.11,20.09,22.63,31.04,56.04,62.1,65.88l54.91,93.07c5.68,26.37,7.07,53.67,8.56,80.64-13.76,23.63-31.33,43.71-29.63,72.43.39,6.52,4.54,13.96,1.03,20.95-21.38,29.94-39.17,62.2-66.63,87.35l-.27,67.59,57.52,100.47c4.68,19.31,1.29,47.14,6.75,65.25,2.44,8.1,18.88,32.67,24.02,43.98,4.23,9.33,13.98,39.94,19.68,44.32,5.36,4.12,15.42,8.01,21.79,12.21,18.2,12,55.76,45.13,75.09,46.89,23.25,2.11,50.23-.87,74.11-.13,25.93.81,53.9,2.38,79.72,6.26,16.34,2.46,63.64,16.18,75.74,13.45,4.6-1.04,12.68-6.71,16.67-7.16,2.31-.26,5.05,1.57,7.68,1.58,55.14.19,106.3,13.1,160.17,17.81,9.13.8,18.59-.59,27.66.33,14.39,1.45,35.2,11.56,47.73,9.39,22.39-3.87,37.81-9.77,61.89-3.04,4.93,1.38,11.35,6.03,16.47,5.55,3.11-.29,9.31-5.92,14.94-7.19,5.47-1.23,10-.44,15.55-2.44,10.69-3.85,26.25-19.43,33.96-22.03,15.93-5.39,41.04-13.41,57.63-12.44,25.39,1.48,50.92.82,75.89,2.07,16.97.86,32.3-4.79,49-.06,2.12-11.98,7-23.65,6.04-35.99-14.94,3.04-28.44-14.85-41.4-17.6-5.61-1.19-11.66.12-17.43-.56-8.86-1.04-20.16-7.31-25.21-14.78-2.6-3.85-4.08-12.31-6.4-14.6-4.31-4.26-24.39-10.71-30.6-16.39-4.23-3.87-4.77-9.95-8.21-14.2-39.3-8.72-79.68-16.58-117.74-29.82-4.97-1.73-21.3-10.07-23.99-10.08-4.77-.02-6.34,6.11-8.96,9.03-3.36,3.74-8.09,7.18-10.89,11.1-5.48,7.65-9.44,19.04-15.07,26.92l8.89-7.1,7.08-1.91c1.08,8.41-2.86,16.39-8.94,22.05l-70.93,31.06-32.09,33.9-12.74-.88c-4.9-7.02-5.88-15.8-5.28-24.13-4.66-.42-7.01,4.84-11.34,5.69-2.64.52-6.13-.32-6.64-2.71-.74-3.5,5.01-5.24,5.76-8.35.55-2.28-1.3-5.23-.92-8.67.78-7.03,3.92-14.25,8.83-19.29-.98-5.8,2.04-12.89,2.08-17.67.09-10.56-9.76-16.93-12.84-26.92-6.21-20.2-7.41-45.31-12.93-66.08-3.89,3.55-10.56,11.99-12.44,16.55-4.38,10.62-3.01,22.39-10.65,33.35-6.27,9-11.26,8.66-18.79,13.21-5.33,3.22-21.99,27.6-25.73,34.26-3.54,6.31-7.13,18.86-11.3,22.7-15.08,13.86-17.57-2.33-22.31-3.82-3.63-1.14-8.88.27-13.36-.64-3.5-.71-19.83-8.35-21.5-10.94-5.19-8.02-5.01-24.96-10.34-35.21-2.85-5.48-10.27-11.35-12.47-15.52-2.06-3.9-1.55-9.76-4.13-13.87-2.67-4.26-9.73-5.7-14.01-9.99-17.59-17.62-31.95-62.62-34.75-87.24-1.26-11.04,1.64-25.14-.55-35.45-1.42-6.68-9.17-15.62-11.17-22.83-10.48-37.68,1.5-61.5,24.71-90.43,6.97-8.69,15.79-11.51,20.92-17.07,5.45-5.91,12.83-22.66,19.07-30.93,6.73-8.92,15.53-16.89,22.84-25.15,5-5.65,19.11-26.18,25.02-27.04,6.29-.92,8.93.69,9.15,7.04.39,11.16-15.78,53.26-21.8,64.37-3.3,6.09-12.71,16.46-13.98,22.02-1.92,8.45.94,17.67-.63,27.33-2.38,14.62-13.11,38.31-13.72,50.43-.2,4.06,8.3,39.83,10.31,43.52s13.67,10.99,17.67,16.33c6.68,8.92,13.86,28.91,14.13,39.99.18,7.28-3.96,14.64-3.62,19.72.56,8.36,10.88,21.84,11.48,31.31,3.74.87,3.88-1.25,5.66-3.32,2.38-2.77,12.51-17.77,13.44-20.56,1.77-5.36.38-11.04,1.33-16.67.86-5.08,4.78-9.79,5.5-14.5,1.02-6.67-3.19-12.21,6.07-12.04l12.98,14.98c10.07-9.28,20.95-9.33,27.39-22.48,9.25-18.87,13.06-33.01,27.88-50.11,8.41-9.71,24.42-12,25.76,3.66,1,11.62-3.02,16.52,5.12,26.97,6.34,8.15,6.1,12.8,11.08,20.83,2.71,4.37,7.75,7.24,10.64,11.36,14.41,20.54-.03,35.23,5.44,54.57,1.18,4.16,14.38,13.89,11.67,23.34,1.57.07,3.13.12,4.68-.3,3.87-1.05,39.27-26.27,39.27-28.7-9.62-10.7-21.56-20.24-31.01-30.95-10.03-11.37-20.76-26.65-24.47-41.53-14.92-59.82,46.6-136.78,109.49-132.53l-35.66-83.48c-.91-12.32,5.51-14.44,13.66-5.5,8.38,9.19,15.54,22.53,26.11,29.89,17.33,12.06,45.74,11.54,56.92,35.1,1.95.55,6.07-3.35,7.07-4.89,3.05-4.72-.37-10.42,5.87-9.11,3,11.27,10.39,16.66,1.39,27.38-1.05,1.25-3.66,1.47-5.16,3.77-2.14,3.27-2.21,8.67-5.71,11.86,4.1,5.88,8.61,11.56,11.04,18.46,1.9,5.41,4.09,16.16,4.39,21.71.49,8.85-7.68,21.09-8.05,29.85s7.26,14.96,8.2,23.9c6.02,57.11-13.04,87.79-52.05,126.08l-10,13.97c40.53,20.52,86.16,28.11,129.95,39.02,2.28-2.69-5.12-14.21-5.68-17.42-.82-4.66,3.58-12.88,3.56-17.66-.02-3.64-4.99-10.63-5.27-16.26-.12-2.44,1.47-4.83,1.33-7.47-.28-5-3.89-10.07-3.5-15.67.22-3.02,6.59-19.48,8.58-19.5,6.83,4.88-1.29,16.3,6.99,19.98.65-8,4.66-15.27,5.86-23.15,2.61-17.22,4.34-30.07,11.17-46.83,7.74-19.02,25.03-30.68,45.85-27.9,5.48.73,14.02,5.97,18.18,5.85,2.36-.07,9.16-5.4,12.95-6.95,14.05-5.77,27.65-9.73,42.75-5.12,1.65-.45,2.21-1.88,2.88-3.25,6-12.27,10.17-41.91,7.9-55.2-1.57-9.18-10.43-24.47-17.7-30.29l-13.84-9.14c21.59-.03,38.71,30.19,38.13,49.03-.37,12.24-4.54,27.21-8.16,38.93,9.63-.28,11.2,10.25,17.26,13.79,5.11,2.98,10.5,1.79,15.85,3.58l30.9-46.3c.06-4.76-9.37-17.16-11.09-22.94-1.79-6.01-.95-14.28-3.98-20.02-2-3.78-8.87-7.99-11.83-12.17-4.16-5.87-5.48-14.12-11.1-19.04l-45,5.28-28.98-6.15c-1,4.41-2.15,5.68,1.67,9-13.73,14.7-34.49,12.75-45.34-4.31-5.05-7.94-3.67-15.9-8.19-23.81-5.32-1.75-10.11.05-15.59-2.4s-4.82-5.93-7-7.99c-3.68-3.46-17.67-3.35-15.52-14.48l11.99,1.99c-.35-7.68-12.21-6.14-7.04-16.05,4.31-8.27,18.66-5.27,26.08-5.9,14.55-1.25,33.27-4.12,47.87-1.97,7.96,1.17,14.73,10.27,23.66,7.58.81-.24,8.77-4.75,10.08-5.62,1.56-1.04.97-3.82,2.56-4.08,3.49-.58,9.64,1.54,11.88-1.82l.88-19.14c.13-2.74-.7-3.7,3.02-3,12.75,2.38,13.55,19.72,20.3,21.7,15.92,4.66,39.32-8.98,54.73,3.24,3.25,2.58,5.42,8.08,7.24,9.2,5.56,3.45,17.88,2.05,27.37,8.19,4.14,2.68,14.59,15.24,16.38,15.64,9.39,2.12,3.92-23.65,11.9-21.95,6.27,6.04,10.62,13.22,8.1,22.08-1.17,4.1-6.24,8.84-6.82,11.33-.96,4.15,5.97,15.91-4.2,16.65l-.05,2.92c1.65,2.09,4.89,3.75,5.66,6.35,2.65,9.01,3.7,47.95,2.27,57.6-1,6.75-7.69,16.12-7.69,24.05,0,6.5,5.62,30.59,14.43,28.7,18.38-15.12,39.89-26.78,58.3-41.7,55.05-44.6,98.53-160.35,13.48-197.47l-22.47-4.51c39.68-3.32,72.75,33.1,76.01,70.96,3.04,35.32-16.34,82.69-37.17,110.89-20.78,28.14-54.05,45.33-80.83,67.16v2.96c1.08-.11,2.6-.17,3.3.6,13.15,14.41,17.79,27.89,17.54,47.57,1.66,2.31,6.47,1.49,9.14,2.86,3.71,1.9,4.32,9.54,8.68,8.8,42.35-25.12,88.11-34.22,106.85-85.25,2.31-6.3,2.92-12.99,4.93-19.07.83-2.52,3.73-6.34,3.53-.48-5.35,32.68-19.12,58.8-47.37,76.63-22.26,14.05-47.25,23.97-69.3,38.68-6.81,4.54-18.68,12.43-24.33,17.66-1.46,1.35-3.18,2.37-2.73,4.68l15.59,40.08c1.56,2.65,11.73,3.17,15.04,3.32,65.56,2.95,137-14.44,198.45,15.56,11.73,5.72,33.47,22.74,36.2,35.79,9.3,44.43-38.16,49.04-69.57,38.58-.18-4.71,4.23.01,4.99.01,9.64,0,25.42,1.48,33.99,0ZM439.55,85.07c-1.81-1.62-24.24-5.79-28.66-6.35-14.01-1.79-27.66-.57-41.45-.79-9.06-.14-19.73-5.54-28.36-5.55s-17.37,6.91-26.11,8.05c-10.38,1.36-25.72-2.05-34.99,1-7.52,2.47-14.08,15.38-20.89,21.1-5.33,4.48-25.5,16.13-27.97,20.02-3.81,5.98-6.25,19.66-12.1,27.9-4.27,6.01-25.22,24.87-26.56,29.43-1.13,3.84-.06,9.12-.48,13.51-.93,9.68.11,12.04.19,20.11.12,12.95-1.53,29.65.08,41.92.48,3.65,13.57,44.29,15.45,48.55,2.74,6.19,23.03,38.44,27.38,42.61,8.16,7.83,29.21,17.7,39.72,24.27,14.6,9.13,26.23,22.71,45.3,21.7l2-24.02-8.14.94-5.85,5.06v-14s-7.96,2.01-7.96,2.01c-1.74-6.45-3.89-15.11-12.04-14.01-2.76-1.92,10-12.54,11.99-15,9.15-11.31,15.94-23.9,20.14-37.89-6-1.53-7.14-12.96-3.11-17.09,1.94-1.99,5.45-1.01,4.97-4-3.43.03-20.09-4.94-21.58-6.43-1.24-1.25-1.68-5.2-3.47-7.51-1.89-2.44-11.61-14.1-13.01-15-1.63-1.05-7.27-3.11-9.01-3.04-3.35.13-7.32,6.74-10.94,2.95,2.86-20.16,14.47-20.1,30-10.98,2.29-7.17-2.48-12.25-3.57-17.41-.63-2.97-.24-6.1-.93-9.07-2.61-11.16-9.7-19.09-.6-29.63,2.29-2.65,13.37-9,16.56-9.6,13.74-2.57,16.59,8.07,37.24-4.59,6.28-3.85,6.21-9.42,16.25-7.69,1.71.29,12.82,5.17,15.64,6.4,5.42,2.37,19.07,10.17,24.7,11.16,2,.35,6.21-1.61,9.6-1.67,14.72-.23,32.47,7.02,28.7,24.71-.48,2.24-2.49,4.41-3.11,6.9-2.72,10.88-5.73,21.65-8.49,32.49,2.69,2.59,20.89-10.78,26.97,2.02.46.98,3,10.44,2.97,11.01-.01.28-2.88,3.99-3.96,2-8.26-11.88-21.44,2.14-27.97,9.99-1.99,2.39-5.82,10.32-6.34,10.66-1.56,1.01-5.51-.1-8.21.75-3.32,1.04-6.2,5.31-11.46,3.59-.73,5.2,5.69,6.1,6.1,11.03.69,8.16-6.18,9.47-6.25,10.12-1.2,12.09,19.99,43.8,30.11,51.84-7.77,3.91-10.4,5.94-13.91,14.14l-8.05-1.16c-1.95,5.42-1.98,8.57-.01,14.01l-5.85-5.06-8.14-.93,2,21.99c3.73.37,5.97-2.49,9.48-3.5,6.3-1.82,22.06-5.78,27.87-5.88,3.15-.06,6.21,1.71,9.65,1.58,8.84-.32,19.92-17.97,25.93-24.24,9.11-9.51,26.34-22.34,30.51-33.48,4.49-12,6.24-26.09,11-39,5.88-15.95,24.49-46.34,21.12-62.07-1.69-7.9-11.67-16-13.21-22.78-2.16-9.54,2.2-29.51-1.39-36.61-2.75-5.42-20.73-26.26-25.93-32.06-15.7-17.52-35.51-31.1-49.53-49.43ZM1678.46,389.89c-3.16-3.88-5.47-8.11-9.7-11.37-1.43-1.1-5.23-3.98-7.01-2.98,3.59,4.07.38,9.85,3.83,14.16,4.71,5.89,25.93,15.25,15.47,1.45-.45-.6-2.06-.62-2.58-1.26ZM362.07,394.54c-3.9-13.58-7.54-12.21-13.99-.98l13.99.98ZM1323.81,422.55c-2.82-19.76-22.01-30.26-39.98-33.98,6.18,9.42,16.5,14.97,24.98,22,2.2,1.83,12.68,14.46,15,11.98ZM1283.82,496.55c1.4-10.11-1.07-19.44-2.04-28.94-1.36-13.32-.22-22.66-9.87-34.12-42.16-3.36-82.31,30.42-98.43,67.69-15.09,34.91-9.62,65.92,14.38,94.36,3.47,4.12,31.07,32.02,33.3,32.69s4.47.29,6.67.32c-4.25-10.43-.56-18.57,5.97-27.03l47.06-32.93c2.23-10.87.37-22.11.92-33.08.29-5.86,4.91-12.54.17-18.14-1.39-1.65-4.26-2.02-5.55-3.4-10.76-11.56-5.79-15.24-8.95-26.05-.79-2.71-4.64-3.64-3.63-7.36,2.97-2.98,12.57,10.69,14.34,12.64s1.8,4.27,5.64,3.34ZM1569.75,530.55v-3.99s-.99,0-.99,0l-3,3.98h3.99ZM1709.72,582.55c2.44,2.65,10.05-7.83,10.93-10.05,5.06-12.74-3.98-18.99-12.92-25.94l1.99,35.99ZM1466.79,552.57c-2.1,2.44-5.12,4.46-7.05,6.94-1.1,1.42-3.98,5.24-2.97,7.02l10.02-13.95ZM979.9,594.55c1.85-1.86-6.14-19.75-8.29-22.7-1.69-2.33-2.23-4.02-5.7-3.29-1.3,11.85-.3,25.03,13.98,25.99ZM1624.24,693.04c2.43-2.76,8.37-2.82,9.49-9.49,2.72-16.13-2-39.03,0-56-1.21-7.06-10.83-8.43-14.92-13.08-5.03-5.74-4.48-16.03-11.13-20.87-5.82-4.24-16.12-3.42-23.37-6.63-6.31-2.79-11.2-9.61-17.84-11.97-12.6,1.76-24.87,5.01-37.18,8.09-11.18,2.8-23.72,9.34-34.61,8.11l-1.93,1.22c-3.96,7.9-6.35,16.43-9.48,24.65-2.71,7.13-3.75,11.69-5.94,18.06-3.9,11.41-9.49,22.37-11.68,34.38l30.99,51.14c9.71,1.8,25.12,13.51,33.7,11.55,2.33-.53,4.39-2.73,6.78-3.27,13.24-2.97,26.4,5.51,37.57,3.6,5.46-.93,16.32-11.89,22.4-15.62,4.72-2.9,20.06-8.63,22.2-10.79,2.27-2.3,2.4-10.22,4.93-13.09ZM1151.85,600.55l-2-9.99h-1.98s2,9.99,2,9.99h1.98ZM1239.84,624.55l10.93-4.06,16.07-27.91c-9.58,9.96-28.2,15.34-27,31.97ZM1153.85,606.55v-3.99h-1.98v3.99h1.98ZM1747.7,606.53v-3.98c-12.31,3.29-27.32-.02-21.98,18l21.98-14.02ZM1073.87,676.55l1.99-5.01-.97-.97-3,5.97h1.98ZM1721.7,758.55c.68-3.46-1.69-5.06-4.08-6.91-8.5-6.57-23.71-12.28-32.93-19.06l-11.97-34-26.99,34.98c5.93,1.92,12.29.6,18.5,1.48,21.01,2.98,39.83,12.45,57.46,23.51ZM993.9,738.54l-17.98-19.99c-1.4,11.41,7.68,18.07,17.98,19.99ZM1559.76,830.54c8.17-2.29,21.46,3.15,28.52,1.7,4.48-.92,8.85-5.37,12.99-7.17,16.86-7.3,31.17-7.06,49.56-6.63,3.33.08,8.03,2.11,9.67,1.78,1.75-.35,4.86-4.56,7.8-6.11,6.1-3.2,13.73-3.71,20.12-7.88,13.04-8.5,24.99-24.54,28.36-39.73-10.7-10.27-22.93-16.73-37.03-20.97-11.37-3.42-33.55-7.87-44.67-4.65-5.36,1.55-6.52,11.65-9.27,16.73-4.36,8.05-12.54,15.17-17.37,23.06l-44.58,9.98c2.85,13.91,1.83,26.9-4.1,39.89ZM1476.77,750.57c-1.01,1.76,1.88,5.63,2.98,7.01,1.45,1.83,3.48,3.21,5.04,4.94,1.01-1.76-1.88-5.63-2.98-7.01-1.45-1.83-3.48-3.21-5.04-4.94ZM1722.71,776.55c-1.3,0-1.3,2,0,2s1.3-2,0-2ZM1720.71,780.55c-1.3,0-1.3,2,0,2s1.3-2,0-2ZM1673.73,826.53c16.97,3.26,28.49,18.01,41,28,5.4,4.31,16.54,14.51,23.03,11.07l15.92-30.25c-2.05-8.39-.96-17.98-3.88-25.9-1.18-3.19-15.41-28.91-17.09-28.88-14.2,19.31-36.97,30.81-57.76,41.9l-1.22,4.05ZM1541.75,836.56l-46.76,2.22c-3.02.92-8.64,16.85-11.42,20.58-2.32,3.12-5.85,2.08-5.8,5.18,8.49-1.85,17.34,2.14,24.98,2.18,11.36.07,38.42-16.55,38.99-30.17ZM1709.71,864.57c-12.82-5.37-24.57-16.39-37.41-21.59-36.72-14.87-71.61-3.18-98.55,23.56,18.36,1.33,38.94-1.76,57.02-.02,6.66.64,13.36,4.38,19.92,4.15,6-.21,13.62-3.6,20.01-4.15,10.77-.93,22.97.37,34.04.03,2.28-.07,5.49,1.29,4.97-1.99ZM1363.81,864.55h56.99c.86,0,9.81-8.41,13.6-10.4,4.21-2.21,12.59-5.33,17.27-6.72,7.2-2.14,13.01.65,18.11-7.89l-29.08-1.09c-14.83,2.64-27.29,1.41-41.97,6.01-11.34,3.56-27.97,10.38-34.91,20.08ZM1579.74,838.56l-21.8.18c-1.78,6.86-3.17,13.44-8.17,18.83l12.67-5.31,17.29-13.69ZM1891.66,864.57c-12.39-6.15-27.18-20.03-41.1-21.89-20.14-2.69-42.98,7.78-54.87,23.86l95.97-1.97ZM1929.32,866.2l3.35-7.63c-4.75,4.73-13.99,3.38-17.01,9.97l13.66-2.34ZM1836.68,888.55c-16.04,1.7-34.65-1.25-50.99,0-.46,2.87,3.47,2.79,5.57,3.42,8.01,2.41,15.1,3.17,23.52,2.67,5.96-.35,20.23-2.47,25.4-4.58,1.64-.67,3.46-1.39,3.49-3.5-3.09-1.27-5.63,1.84-7,1.99ZM1761.7,890.56c-9.67-.13-19.39.09-29.08.09-9.59,0-9.34.21-18.33,1.48-18.12,2.56-36.26,2.75-54.55,2.43,1.62,5.13,8.13,4.82,11.89,7.1,5.03,3.05,10.84,10.67,10.1,16.89-4.73.92-7.99-4.76-11.43-5.7-1.29-.35-17.04,1.53-19.16,2.1-3.62.98-10.28,7.25-15.31,8.69-8.93,2.55-24.1.71-32.64-3.08-1.8-.8-12.98-16.1-15.38-19.06-2.21-1.35-12.29-2.61-10.04,2.04.7,1.45,3.59,2.96,4.85,5.15,4.56,7.95,7.76,16.97,14.09,23.91,23.92,26.21,74.2,30.36,105.55,17.49,13.31-5.47,19.22-16.56,29.41-26.58,2.13-2.09,5.16-3.11,7.04-4.96,8.63-8.48,17.53-16.95,23-27.98Z"/>
      <path class="cls-1" d="M729.19,318.75c6.18-1.66,8.77,1.83,10.47,7.24l-7.72,47.43c4.61,13.78,13.31,18.34,12.06,34.18-1.45,18.42-3.34,37.24-2.08,56,1.61,23.87,8.38,50.11,10.08,73.91,1.38,19.3,1.15,23.61,5.51,42.49,3.89,16.86,6.06,41.81,8.29,59.71,3.77,30.34,3.64,66.38,8.59,95.4,1.98,11.62,16.9,29.73,17.61,38.57.31,3.91-2.73,8.9-7.02,8.9-3.72,0-32.67-16.37-38.4-19.66-13.3-7.63-40.44-23.28-50.51-33.48-4.77-4.84-4.8-11.4-3.98-17.77,2.06-16.07,27.13-34.81,31.4-52.38-.44-5.25-2.75-10.79-3.37-15.9-5.52-45.85-13.77-89.44-10.13-135.78,1.1-14.04-9.34-24.65-11.21-38.87l-33.75-44.24-1.03-12.93c19.37-32.37,43.67-61.76,65.18-92.82Z"/>
      <path class="cls-1" d="M1175.85,468.56l-4.17,17.8c-21.68,3.07-.9-23.01,4.17-17.8Z"/>
      <path class="cls-1" d="M1769.72,916.57c1.63-1.68,18.75,4.55,15.96,10.97-6.03,6.72-14.02,2.35-17.7-4.28l1.74-6.69Z"/>
      <path class="cls-1" d="M1369.14,712.81c16.11-4.77,11.79,26.16-5.26,6.56-.49-2.3,3.25-5.97,5.26-6.56Z"/>
      <path class="cls-1" d="M1551.63,490.42c-1.86,1.31-8.99.26-9.62-3.11-4.05-12.51,7.69-18.15,10.92-6.8.68,2.4.04,8.96-1.3,9.9Z"/>
      <path class="cls-1" d="M1905.66,814.56c1.65,9.51-2.41,14.19-11.97,13.98-4.43-8.84,3.1-15.03,11.97-13.98Z"/>
      <path class="cls-1" d="M1797.69,936.57c.87,10.1-9.99,14.24-15.9,4.79,2.27-8.79,9.08-7.23,15.9-4.79Z"/>
      <path class="cls-1" d="M1829.69,450.55c-3.89-4.08,2.77-15.24,6.98-13.99,9.15,5.44-3.21,17.95-6.98,13.99Z"/>
      <path class="cls-1" d="M1367.81,676.56c8.94,1.1,10.94,13.23,2.99,17.97-5.4-4.37-2.29-12.08-2.99-17.97Z"/>
      <path class="cls-1" d="M1790.96,608.8c13.06-.92,2.7,11.65-2.27,11.72-3.92.05-4.22-9.71,2.27-11.72Z"/>
      <path class="cls-1" d="M1937.65,830.55c-7.37.38-13.87,1.08-9.98-7.98l8.05.92,1.93,7.06Z"/>
      <path class="cls-1" d="M1777.69,808.55l-2.99,11.98c-6.37-3.62-6.56-13.52,2.99-11.98Z"/>
      <path class="cls-1" d="M1536.76,462.57l4.99,6.96-4.98,3.01c-4.26-3.12-4.28-6.85-.02-9.97Z"/>
      <path class="cls-1" d="M1357.8,668.56v9.99c-8.24.15-8.24-10.14,0-9.99Z"/>
      <path class="cls-1" d="M1919.66,796.56c.63,2.95-.86,4.18-3,5.98h-4.98s0-5.98,0-5.98h7.99Z"/>
      <path class="cls-1" d="M1527.76,478.55c-6.03.89-8.89-1.75-7.98-7.99,3.54,1.78,8.82,3.15,7.98,7.99Z"/>
      <polygon class="cls-1" points="1815.68 600.56 1815.68 605.54 1812.69 608.53 1809.7 605.54 1809.7 600.56 1815.68 600.56"/>
      <path class="cls-1" d="M1179.86,462.55v-7.99c7.93.05,7.93,7.94,0,7.99Z"/>
      <path class="cls-1" d="M1821.68,588.56v5.99c-7.34-.05-7.34-5.94,0-5.99Z"/>
      <path class="cls-1" d="M1841.69,422.55c-1.17-1.17,1.73-5.97,2.99-5.97,5.51,0,.05,9.02-2.99,5.97Z"/>
      <rect class="cls-1" x="1835.69" y="578.56" width="5.99" height="3.99"/>
      <path class="cls-1" d="M1863.68,422.56l-5.99,5.99c-.59-3.92,2.33-6.61,5.99-5.99Z"/>
      <path class="cls-1" d="M1813.69,934.54h-5.99s0-3.98,0-3.98c2.5-1.3,6.97,3.2,5.99,3.98Z"/>
      <path class="cls-1" d="M1922.66,760.55c1.3,0,1.3,2,0,2s-1.3-2,0-2Z"/>
      <path class="cls-1" d="M1577.38,674.18c-.95,1.19-26.09,7.13-29.49,7.43-7.91.69-13.17-12.73-19.88-16.31l.71-24.79c1.53-3.01,25.85-12.08,30.08-12.12,6.11-.05,18.19,13.4,24.4,17.04l-5.82,28.74Z"/>
      <path class="cls-1" d="M1189.86,490.55l7-11.97c7.52,3.93-3.16,15.61-7,11.97Z"/>
      <path class="cls-1" d="M1681.72,930.57c.31,3.18.43,4.61-2,6.97-12.36,11.98-23.02-15.26,2-6.97Z"/>
    </g>
  </g>
</svg>